<?xml version="1.0" encoding="UTF-8"?><svg id="Icon_export" xmlns="http://www.w3.org/2000/svg" viewBox="0 0 48 48"><path d="m35,35.5c-.128,0-.256-.049-.354-.146l-6-6c-.195-.195-.195-.512,0-.707s.512-.195.707,0l6,6c.195.195.195.512,0,.707-.098.098-.226.146-.354.146Z" style="fill:#fff;"/><path d="m18,34c8.837,0,16-7.163,16-16S26.837,2,18,2,2,9.163,2,18s7.163,16,16,16Z" style="fill:#3196d6;"/><path d="m18,31c-7.168,0-13-5.832-13-13s5.832-13,13-13,13,5.832,13,13-5.832,13-13,13Zm0-25c-6.617,0-12,5.383-12,12s5.383,12,12,12,12-5.383,12-12-5.383-12-12-12Z" style="fill:#fff;"/><path d="m46,42l-4,4-9-9c-1.105-1.105-1.105-2.895,0-4h0c1.105-1.105,2.895-1.105,4,0l9,9Z" style="fill:#95caeb;"/><path d="m12.872,13.009h1.366v10.991h-1.366v-10.991Zm4.475,0h4.208c2.669,0,3.548,1.664,3.548,3.297,0,1.507-.974,3.282-3.548,3.282h-2.843v4.412h-1.365v-10.991Zm6.39,3.297c0-.863-.439-2.025-2.088-2.025h-2.937v4.035h2.937c1.555,0,2.088-1.067,2.088-2.01Z" style="fill:#fff;"/><rect width="48" height="48" style="fill:none;"/></svg>