<?xml version="1.0" encoding="UTF-8"?><svg id="Icon_export" xmlns="http://www.w3.org/2000/svg" viewBox="0 0 48 48"><polygon points="24 3 5 13.5 24 24 43 13.5 24 3" style="fill:#95caeb;"/><polygon points="24 24 24 45 43 34.5 43 13.5 24 24" style="fill:#fff;"/><polygon points="24 24 5 13.5 5 34.5 24 45 24 24" style="fill:#3196d6;"/><polygon points="24 35 34 29.5 24 24 14 29.5 24 35" style="fill:#95caeb;"/><polygon points="24 24 24 13 14 18.474 14 29.5 24 24" style="fill:#fff;"/><polygon points="24 24 34 29.5 34 18.474 24 13 24 24" style="fill:#3196d6;"/><rect width="48" height="48" style="fill:none;"/></svg>