<?xml version="1.0" encoding="UTF-8"?><svg id="Icon_export" xmlns="http://www.w3.org/2000/svg" viewBox="0 0 48 48"><path d="m2,9c0-.552.448-1,1-1h42c.552,0,1,.448,1,1v3H2v-3Z" style="fill:#95caeb; stroke-width:0px;"/><path d="m2,12h44v27c0,.552-.448,1-1,1H3c-.552,0-1-.448-1-1V12Z" style="fill:#3196d6; stroke-width:0px;"/><path d="m3.5,10c0-.276.224-.5.5-.5s.5.224.5.5-.224.5-.5.5-.5-.224-.5-.5Zm4.5.5c.276,0,.5-.224.5-.5s-.224-.5-.5-.5-.5.224-.5.5.224.5.5.5Zm-2,0c.276,0,.5-.224.5-.5s-.224-.5-.5-.5-.5.224-.5.5.224.5.5.5Z" style="fill:#001b41; stroke-width:0px;"/><path d="m24,26c-.276,0-.5-.224-.5-.5v-4c0-.276.224-.5.5-.5s.5.224.5.5v4c0,.276-.224.5-.5.5Z" style="fill:#fff; stroke-width:0px;"/><path d="m30,30c-.276,0-.5-.224-.5-.5v-3c0-.276-.225-.5-.5-.5h-10c-.275,0-.5.224-.5.5v3c0,.276-.224.5-.5.5s-.5-.224-.5-.5v-3c0-.827.673-1.5,1.5-1.5h10c.827,0,1.5.673,1.5,1.5v3c0,.276-.224.5-.5.5Z" style="fill:#fff; stroke-width:0px;"/><rect x="13.5" y="29" width="9" height="8" rx="1" ry="1" style="fill:#95caeb; stroke-width:0px;"/><rect x="25.5" y="29" width="9" height="8" rx="1" ry="1" style="fill:#95caeb; stroke-width:0px;"/><rect x="19.5" y="15" width="9" height="8" rx="1" ry="1" style="fill:#95caeb; stroke-width:0px;"/><rect width="48" height="48" style="fill:none; stroke-width:0px;"/></svg>