<?xml version="1.0" encoding="utf-8"?>
<svg version="1.1" id="Layer_1" xmlns="http://www.w3.org/2000/svg" xmlns:xlink="http://www.w3.org/1999/xlink" x="0px" y="0px"
	 viewBox="0 0 64 64" style="enable-background:new 0 0 64 64;" xml:space="preserve">
<style type="text/css">
	.st0{fill:#0B2A63;}
	.st1{fill:#FFFFFF;}
</style>
<rect class="st0" width="64" height="64"/>
<g>
	<path class="st1" d="M9.6,38.5c-0.6,0-1.2-0.5-1.2-1.2V25.7l0,0c0-0.6,0.5-1.1,1.2-1.1c0.5,0,1,0.3,1.1,0.9c0,0,0,0,0,0.1l0,0.1
		c0,0.1,0,0.1,0,0.2c0,0,0,11.5,0,11.7C10.8,38,10.3,38.5,9.6,38.5"/>
	<path class="st1" d="M52.9,38.5c-0.2,0-0.5,0-0.7-0.1c-1-0.2-1.9-0.8-2.4-1.7l0,0c-0.3-0.5-0.1-1.1,0.4-1.4
		c0.2-0.1,0.3-0.1,0.5-0.1c0.4,0,0.7,0.2,0.9,0.5c0,0,0,0,0,0.1l0.1,0.2l0.2,0.2c0.2,0.2,0.4,0.3,0.7,0.3c0.4,0.1,0.9,0,1.2-0.3
		c0.4-0.3,0.6-0.6,0.6-1.1c0-0.4-0.1-0.9-0.4-1.2c0,0-3.2-3.3-3.3-3.5c-0.1-0.1-0.2-0.2-0.4-0.5c-0.5-0.6-0.6-1.4-0.5-2.1
		c0-0.5,0.2-1,0.4-1.5c0,0,0.1-0.2,0.2-0.3c0.2-0.2,0.5-0.6,0.7-0.7c0.2-0.2,0.5-0.3,0.6-0.4c0.6-0.3,1.4-0.4,2.2-0.3
		c1,0.2,1.8,0.8,2.3,1.7c0.1,0.2,0.2,0.5,0.1,0.8c-0.1,0.3-0.3,0.5-0.5,0.7c-0.2,0.1-0.3,0.1-0.5,0.1c-0.4,0-0.7-0.2-0.9-0.5
		c-0.2-0.3-0.5-0.6-0.9-0.7c-0.4-0.1-0.8,0-1.1,0.3c-0.3,0.2-0.5,0.6-0.5,1c0,0.4,0.1,0.8,0.4,1.1l3.3,3.4c0.7,0.7,1.1,1.8,1,2.8
		c-0.1,1-0.6,2-1.4,2.6C54.4,38.2,53.7,38.5,52.9,38.5"/>
	<path class="st1" d="M42.5,38.5c-1.9,0-3.5-1.6-3.5-3.5v-7c0-1.9,1.6-3.5,3.5-3.5c1.9,0,3.5,1.6,3.5,3.5v7
		C46,36.9,44.5,38.5,42.5,38.5 M42.5,26.6c-0.8,0-1.4,0.6-1.4,1.4v7c0,0.8,0.6,1.4,1.4,1.4c0.8,0,1.4-0.6,1.4-1.4v-7
		C43.9,27.3,43.3,26.6,42.5,26.6"/>
	<path class="st1" d="M28.8,31.7v5.8c0,0.6-0.5,1.1-1.1,1.1c-0.6,0-1.1-0.5-1.1-1.1V27.3L28.8,31.7z M34.6,35.7V25.6
		c0-0.6-0.5-1.1-1.1-1.1c-0.6,0-1.1,0.5-1.1,1.1v5.8L34.6,35.7z M28.8,25.1C28.8,25.1,28.7,25.1,28.8,25.1c-0.2-0.4-0.6-0.6-1-0.6
		c-0.1,0-0.1,0-0.2,0c-0.5,0.1-0.8,0.5-0.8,1v0.2l5.8,12.1c0.2,0.4,0.6,0.6,0.9,0.6c0.1,0,0.2,0,0.2,0c0.5-0.1,0.8-0.5,0.8-1v-0.2
		C34.6,37.2,28.9,25.4,28.8,25.1"/>
	<path class="st1" d="M18.8,38.5c-0.9,0-1.8-0.4-2.5-1c-0.7-0.7-1-1.5-1-2.5v-7c0-0.9,0.4-1.8,1-2.5c0.7-0.7,1.5-1,2.5-1
		s1.8,0.4,2.5,1c0.7,0.7,1,1.5,1,2.5v7c0,0.9-0.4,1.8-1,2.5C20.6,38.1,19.7,38.5,18.8,38.5 M18.8,26.6c-0.4,0-0.7,0.1-1,0.4
		c-0.3,0.3-0.4,0.6-0.4,1v7c0,0.4,0.1,0.7,0.4,1c0.3,0.3,0.6,0.4,1,0.4c0.4,0,0.7-0.1,1-0.4c0.3-0.3,0.4-0.6,0.4-1v-7
		c0-0.4-0.1-0.7-0.4-1C19.5,26.8,19.1,26.6,18.8,26.6"/>
</g>
</svg>
